<svg width="144" height="35" viewBox="0 0 144 35" fill="none" xmlns="http://www.w3.org/2000/svg">
<path fill-rule="evenodd" clip-rule="evenodd" d="M131.811 0L143.673 16.2387H128.829C128.1 16.2387 127.636 15.6422 127.835 14.9131L131.811 0Z" fill="white"/>
<path fill-rule="evenodd" clip-rule="evenodd" d="M127.172 8.15249L116.901 16.305H123.66C124.389 16.305 125.184 15.7084 125.383 14.9794L127.172 8.15249Z" fill="white"/>
<path fill-rule="evenodd" clip-rule="evenodd" d="M98.6748 24.7928L102.386 10.8739H113.784L112.923 14.188H106.031L105.434 16.3089H111.067L110.405 18.695H104.772L104.043 21.3462H111.001L110.073 24.7265H98.6748V24.7928ZM79.7219 23.5998L83.1016 10.8739H87.6742L83.9631 24.7928H80.5834L79.7219 23.5998ZM47.8464 19.3578H52.0876C51.4912 21.2137 50.4309 22.6056 49.0392 23.5998C47.5813 24.594 45.9246 25.1242 43.8702 25.1242C41.6171 25.1242 40.0929 24.4614 39.1651 23.1358C38.2373 21.8102 38.1048 20.0206 38.7012 17.7671C39.2976 15.5136 40.4242 13.724 42.0147 12.3984C43.6714 11.0728 45.5269 10.41 47.7138 10.41C49.7019 10.41 51.1598 10.8739 52.0876 11.8681C52.9491 12.8623 53.2804 14.2542 52.8828 16.0438H48.6416C48.7741 15.3147 48.6416 14.7845 48.3765 14.4531C48.0452 14.1217 47.5813 13.9228 46.8523 13.9228C45.9908 13.9228 45.2619 14.2542 44.5992 14.8508C44.0028 15.5136 43.5389 16.4415 43.1413 17.7671C42.8099 19.0264 42.8099 20.0206 43.075 20.6172C43.3401 21.28 43.9365 21.6114 44.8643 21.6114C45.5269 21.6114 46.1896 21.4125 46.6535 21.0148C47.1837 20.6834 47.5813 20.1532 47.8464 19.3578ZM28.297 10.8739H30.7489L34.46 21.28L37.177 10.8739H39.4302L35.7191 24.7928H33.2671L29.5561 14.3868L26.7728 24.7928H24.5859L28.297 10.8739ZM122.465 35L143.075 18.695H128.231C127.436 18.695 126.707 19.2915 126.508 20.0206L122.465 35ZM124.056 20.0206C124.255 19.2915 123.791 18.695 123.062 18.695H116.302L122.267 26.8475L124.056 20.0206ZM74.089 24.7928H73.5588L74.089 22.8707L74.354 21.8765C74.5529 21.1474 74.5529 20.6172 74.354 20.352C74.2878 20.2857 74.2215 20.1532 74.089 20.0869C73.8239 19.9544 73.4925 19.8881 72.9624 19.8881H71.1069L69.7815 24.7265H65.3414L69.1188 10.7414H75.7457C77.8001 10.7414 79.258 11.0728 79.9207 11.6693C80.6496 12.2658 80.8484 13.3263 80.4508 14.7182C80.1857 15.5798 79.8544 16.2426 79.3242 16.8392C78.7941 17.3694 78.1314 17.8334 77.2699 18.1648C77.9989 18.3636 78.4627 18.6287 78.7278 19.159C78.9266 19.6229 78.9929 20.352 78.7278 21.28L78.1314 23.5335L78.9929 24.7265H74.089V24.7928ZM74.089 16.7729C74.7517 16.7729 75.2156 16.6403 75.4806 16.5078C75.812 16.3089 76.0108 15.9775 76.1433 15.5136C76.2759 15.0496 76.2096 14.6519 76.0108 14.5194C75.812 14.3205 75.2818 14.2542 74.4866 14.2542H72.5648L71.9021 16.8392H74.089V16.7729ZM92.7769 10.8739H94.8312C96.0904 10.8739 96.9519 10.8739 97.482 10.9402C98.0122 11.0065 98.476 11.1391 98.8737 11.2716C99.4701 11.5367 99.934 11.9344 100.133 12.5309C100.332 13.1275 100.332 13.7903 100.133 14.5856C99.934 15.2484 99.6689 15.7787 99.2713 16.2426C98.8737 16.7066 98.3435 17.1043 97.6808 17.4357C98.3435 17.7008 98.8074 18.0985 99.0062 18.6287C99.205 19.159 99.205 19.8218 99.0062 20.6834C98.8074 21.5451 98.4098 22.2079 97.9459 22.8707C97.4157 23.4672 96.8193 23.9312 96.0903 24.2626C95.5602 24.4614 95.03 24.6603 94.4336 24.7265C94.036 24.7928 93.5059 24.8591 92.8432 24.8591C92.4455 24.8591 92.0479 24.8591 91.584 24.8591H85.421L89.1321 10.9402H92.7769V10.8739ZM92.7769 21.5451C93.4396 21.5451 93.9035 21.4125 94.1685 21.2137C94.4999 21.0148 94.765 20.6834 94.8975 20.2195C95.03 19.7555 94.9638 19.4241 94.6987 19.2253C94.4336 19.0264 93.9697 18.9601 93.307 18.9601H91.2527L90.59 21.5451H92.7769ZM93.7709 16.4415C94.3674 16.4415 94.8312 16.3752 95.1626 16.1764C95.4939 15.9775 95.6927 15.7124 95.8253 15.2484C95.9578 14.7845 95.8915 14.4531 95.6927 14.3205C95.4939 14.188 94.8975 14.0554 93.9035 14.0554H92.6444L91.9817 16.4415H93.7709ZM58.6482 11.2053L58.8471 10.8739H63.3534L64.4799 24.7928H60.0399V22.937H55.6661L54.6058 24.7928H50.2321L58.6482 11.2053ZM60.0399 20.0206L59.9736 15.1822L58.6482 17.502L57.2566 20.0206H60.0399ZM19.7482 10.8739H22.3327L23.7244 24.7928H21.2724L20.9411 21.2137H15.5733L13.3864 24.7928H10.9344L18.7542 12.3984L19.7482 10.8739ZM20.8748 19.2253L20.4109 13.1938L18.7542 15.845L16.6998 19.2253H20.8748ZM6.29557 10.8739H9.74157C11.1995 10.8739 12.1935 11.2053 12.79 11.7356C13.3201 12.3321 13.4526 13.1937 13.1213 14.3868C12.9225 15.0496 12.6574 15.6461 12.1935 16.1101C11.7296 16.6403 11.1332 16.9717 10.5368 17.2369C11.2658 17.502 11.7959 17.8334 12.061 18.4299C12.3261 19.0264 12.3261 19.7555 12.061 20.6172C11.7297 21.8765 11.0007 22.8707 9.94038 23.5998C8.94634 24.2626 7.68723 24.6603 6.29557 24.7265H0L3.71108 10.8077H6.29557V10.8739ZM6.42811 22.7381C7.28961 22.7381 8.01857 22.5393 8.615 22.2079C9.14515 21.8765 9.54277 21.28 9.74157 20.5509C9.94038 19.8218 9.87411 19.2915 9.4765 18.9601C9.14515 18.6287 8.48246 18.4299 7.48842 18.4299H3.90988L2.78331 22.7381H6.42811ZM7.7535 16.5078C8.615 16.5078 9.27769 16.3752 9.74157 16.0438C10.2717 15.7124 10.5368 15.2484 10.7356 14.5856C10.8682 13.9891 10.8019 13.5252 10.4705 13.26C10.1392 12.9286 9.60904 12.7961 8.74754 12.7961H5.43408L4.44004 16.5078H7.7535Z" fill="white"/>
</svg>
